<svg xmlns="http://www.w3.org/2000/svg" width="600" height="400" viewBox="0 0 600 400"><rect width="100%" height="100%" fill="#F8F8F8"/><path fill="#CCC" d="m166.205 168.135-18.97 31.9v20.16h-9.65v-20.16l-18.97-31.9h8.53q1.26 0 2 .62.73.61 1.24 1.54l9.5 17.39q.83 1.55 1.46 2.92t1.13 2.73q.47-1.36 1.08-2.73.62-1.37 1.41-2.92l9.47-17.39q.39-.79 1.18-1.47.8-.69 2.02-.69zm20.27 14.55q4.1 0 7.47 1.33 3.36 1.33 5.76 3.78 2.39 2.45 3.69 5.98 1.29 3.52 1.29 7.88 0 4.39-1.29 7.92-1.3 3.53-3.69 6.01-2.4 2.49-5.76 3.82-3.37 1.33-7.47 1.33-4.14 0-7.53-1.33-3.38-1.33-5.78-3.82-2.39-2.48-3.7-6.01-1.32-3.53-1.32-7.92 0-4.36 1.32-7.88 1.31-3.53 3.7-5.98 2.4-2.45 5.78-3.78 3.39-1.33 7.53-1.33m0 31.21q4.6 0 6.82-3.1 2.21-3.09 2.21-9.07 0-5.97-2.21-9.11-2.22-3.13-6.82-3.13-4.68 0-6.93 3.15t-2.25 9.09 2.25 9.06q2.25 3.11 6.93 3.11m47.95-30.64h8.89v36.94h-5.44q-1.76 0-2.23-1.62l-.61-2.95q-2.27 2.3-5 3.72-2.74 1.43-6.45 1.43-3.02 0-5.34-1.03-2.33-1.03-3.91-2.9t-2.39-4.44q-.81-2.58-.81-5.67v-23.48h8.89v23.48q0 3.38 1.56 5.23 1.57 1.86 4.7 1.86 2.31 0 4.32-1.03 2.02-1.02 3.82-2.82zm25.52 2.24.54 4.17q1.73-3.31 4.11-5.2 2.37-1.89 5.61-1.89 2.56 0 4.11 1.12l-.58 6.66q-.18.64-.52.91t-.92.27q-.54 0-1.6-.18t-2.07-.18q-1.48 0-2.63.44-1.15.43-2.07 1.24t-1.62 1.96-1.31 2.63v22.75h-8.9v-36.94h5.22q1.37 0 1.91.49t.72 1.75m36.79-2.24h8.93v36.94h-8.93zm10.16-10.76q0 1.15-.47 2.16t-1.24 1.76q-.78.76-1.82 1.21-1.05.45-2.23.45-1.16 0-2.18-.45-1.03-.45-1.78-1.21-.76-.75-1.21-1.76t-.45-2.16q0-1.19.45-2.23.45-1.05 1.21-1.8.75-.76 1.78-1.21 1.02-.45 2.18-.45 1.18 0 2.23.45 1.04.45 1.82 1.21.77.75 1.24 1.8.47 1.04.47 2.23m16.74 47.7h-8.9v-36.94h5.44q1.73 0 2.27 1.62l.57 2.74q.98-1.08 2.04-1.98t2.27-1.55q1.2-.65 2.59-1.02 1.38-.38 3.04-.38 3.49 0 5.74 1.89t3.37 5.02q.86-1.84 2.16-3.15 1.29-1.31 2.84-2.14t3.3-1.23q1.74-.39 3.51-.39 3.06 0 5.43.93 2.38.94 4 2.74t2.46 4.39q.85 2.59.85 5.94v23.51h-8.89v-23.51q0-3.53-1.55-5.31t-4.54-1.78q-1.36 0-2.53.47t-2.06 1.35q-.88.88-1.38 2.21-.51 1.33-.51 3.06v23.51h-8.92v-23.51q0-3.71-1.5-5.4-1.49-1.69-4.37-1.69-1.95 0-3.62.95-1.67.96-3.11 2.61zm70.92-9.54v-6.23q-3.86.18-6.48.67-2.63.48-4.22 1.24-1.58.76-2.26 1.76-.69 1.01-.69 2.2 0 2.34 1.39 3.35 1.38 1.01 3.62 1.01 2.73 0 4.73-.99t3.91-3.01m-18.8-19.4-1.58-2.85q6.37-5.83 15.34-5.83 3.24 0 5.79 1.06 2.56 1.06 4.32 2.95 1.77 1.89 2.68 4.52.92 2.63.92 5.76v23.33h-4.03q-1.26 0-1.94-.38-.69-.38-1.08-1.53l-.8-2.66q-1.4 1.26-2.73 2.21-1.33.96-2.77 1.6-1.44.65-3.08.99-1.64.35-3.62.35-2.34 0-4.32-.63t-3.42-1.89-2.23-3.14q-.79-1.87-.79-4.35 0-1.41.46-2.79.47-1.39 1.53-2.65 1.07-1.26 2.76-2.37 1.69-1.12 4.16-1.95 2.46-.83 5.74-1.35 3.27-.52 7.49-.63v-2.16q0-3.71-1.59-5.49-1.58-1.78-4.57-1.78-2.16 0-3.58.5-1.42.51-2.5 1.14t-1.97 1.13q-.88.51-1.96.51-.93 0-1.58-.49t-1.05-1.13m49.32 9.57q1.66 0 2.88-.45 1.23-.45 2.04-1.24t1.22-1.91q.42-1.11.42-2.45 0-2.73-1.64-4.33-1.64-1.61-4.92-1.61-3.27 0-4.91 1.61-1.64 1.6-1.64 4.33 0 1.3.42 2.42.41 1.11 1.22 1.92t2.05 1.26 2.86.45m10.05 21.03q0-1.08-.65-1.77-.65-.68-1.76-1.06-1.12-.38-2.61-.56-1.5-.18-3.17-.27-1.68-.09-3.46-.16t-3.47-.29q-1.48.83-2.4 1.95-.91 1.11-.91 2.59 0 .97.48 1.82.49.84 1.55 1.45 1.06.62 2.75.96 1.7.34 4.14.34 2.49 0 4.29-.38t2.97-1.04q1.17-.67 1.71-1.59.54-.91.54-1.99m-1.77-37.34h10.62v3.32q0 1.58-1.9 1.94l-3.32.61q.76 1.91.76 4.18 0 2.73-1.1 4.95-1.1 2.21-3.04 3.76t-4.59 2.39q-2.65.85-5.71.85-1.08 0-2.08-.11-1.01-.11-1.98-.29-1.73 1.05-1.73 2.34 0 1.12 1.02 1.64 1.03.52 2.72.74t3.85.27 4.43.23 4.43.63 3.85 1.43q1.69.97 2.72 2.64 1.03 1.68 1.03 4.3 0 2.45-1.21 4.76-1.21 2.3-3.49 4.1-2.29 1.8-5.62 2.9t-7.58 1.1q-4.17 0-7.27-.81-3.09-.81-5.15-2.16-2.05-1.35-3.06-3.12-1-1.76-1-3.67 0-2.59 1.56-4.34 1.57-1.74 4.3-2.79-1.47-.75-2.34-2.01-.86-1.26-.86-3.32 0-.82.31-1.71.3-.88.9-1.74.59-.87 1.49-1.64t2.12-1.39q-2.8-1.51-4.41-4.03-1.6-2.52-1.6-5.9 0-2.74 1.1-4.95 1.1-2.22 3.06-3.78 1.96-1.57 4.64-2.4 2.69-.82 5.85-.82 2.38 0 4.47.48 2.09.49 3.81 1.42m23.26 12.96h16.78q0-1.72-.49-3.25t-1.46-2.69q-.97-1.15-2.46-1.81-1.5-.67-3.48-.67-3.85 0-6.06 2.2-2.22 2.19-2.83 6.22m22.68 5.37h-22.86q.22 2.84 1.01 4.91t2.09 3.42q1.29 1.35 3.07 2.02 1.79.66 3.95.66t3.72-.5q1.57-.5 2.74-1.12 1.17-.61 2.05-1.11.88-.51 1.71-.51 1.12 0 1.66.83l2.55 3.24q-1.47 1.73-3.31 2.9t-3.83 1.87q-2 .7-4.07.99t-4.02.29q-3.85 0-7.16-1.28t-5.76-3.78-3.85-6.19q-1.41-3.69-1.41-8.55 0-3.78 1.23-7.11 1.22-3.33 3.51-5.8 2.28-2.46 5.58-3.9 3.29-1.44 7.43-1.44 3.49 0 6.45 1.11 2.95 1.12 5.07 3.26 2.13 2.14 3.33 5.26 1.21 3.11 1.21 7.11 0 2.01-.43 2.72-.44.7-1.66.7"/></svg>